<svg xmlns="http://www.w3.org/2000/svg" viewBox="0 0 1744.02 209.44"><defs><style>.cls-1{fill:#d2aa56;}</style></defs><title>Asset 3</title><g id="Layer_2" data-name="Layer 2"><g id="Layer_1-2" data-name="Layer 1"><path class="cls-1" d="M103.55,155.91l-.17-74.72L66.35,143H57L20,82.15v73.76H0V43.18H17.23L62,117.9l44-74.72h17.23l.16,112.73Z"/><path class="cls-1" d="M220.62,105.5v50.41h-19V145.44c-4.83,7.41-14.17,11.6-27.05,11.6-19.65,0-32-10.79-32-25.77,0-14.33,9.66-25.6,35.75-25.6H200.5v-1.29c0-11.76-7.09-18.68-21.42-18.68-9.66,0-19.65,3.22-26.09,8.53L145.1,79.58C154.28,72.49,167.64,69,181.49,69,206.29,69,220.62,80.71,220.62,105.5ZM200.5,129V119H179.72c-13.69,0-17.39,5.15-17.39,11.43,0,7.25,6.12,11.92,16.43,11.92C188.58,142.38,197.11,137.87,200.5,129Z"/><path class="cls-1" d="M278.28,119l-15,14.17v22.71H243.18V36.42H263.3v72.14L305,69.92h24.16L293.26,106l39.29,49.92H308.07Z"/><path class="cls-1" d="M377.48,119l-15,14.17v22.71H342.38V36.42h20.13v72.14l41.7-38.64h24.16L392.46,106l39.29,49.92H407.27Z"/><path class="cls-1" d="M512,105.5v50.41H493V145.44c-4.83,7.41-14.17,11.6-27.06,11.6-19.64,0-32-10.79-32-25.77,0-14.33,9.66-25.6,35.75-25.6h22.22v-1.29c0-11.76-7.08-18.68-21.42-18.68-9.66,0-19.64,3.22-26.08,8.53l-7.89-14.65C445.61,72.49,459,69,472.82,69,497.62,69,512,80.71,512,105.5ZM491.82,129V119H471.05c-13.69,0-17.39,5.15-17.39,11.43,0,7.25,6.12,11.92,16.42,11.92C479.91,142.38,488.44,137.87,491.82,129Z"/><path class="cls-1" d="M619.21,106.63v49.28H599.08v-46.7c0-15.3-7.57-22.71-20.45-22.71-14.34,0-24,8.7-24,25.93v43.48H534.5V36.42h20.13V79.9c6.6-7.09,16.75-11,28.67-11C603.91,69,619.21,80.71,619.21,106.63Z"/><path class="cls-1" d="M946,155.91l-23-33a39.53,39.53,0,0,1-4.35.16H893.22v32.85H872.29V43.18h46.37c29.64,0,48,15.14,48,40.1,0,17.07-8.69,29.63-24,35.59l25.93,37Zm-28.34-95H893.22v44.93H917.7c18.36,0,27.86-8.38,27.86-22.55S936.06,60.9,917.7,60.9Z"/><path class="cls-1" d="M1065.37,119.35H997.9c2.41,12.56,12.88,20.62,27.86,20.62,9.66,0,17.23-3.06,23.35-9.34L1059.9,143c-7.73,9.17-19.81,14-34.62,14-28.83,0-47.51-18.52-47.51-44.13s18.84-44,44.45-44c25.12,0,43.48,17.55,43.48,44.45C1065.7,115,1065.53,117.42,1065.37,119.35ZM997.74,106h48.79c-1.61-12.4-11.11-20.94-24.31-20.94S999.67,93.43,997.74,106Z"/><path class="cls-1" d="M1072,147.37l7.73-15.29c7.57,5,19.16,8.53,30,8.53,12.73,0,18-3.54,18-9.5,0-16.43-53.14-1-53.14-35.27,0-16.26,14.65-26.89,37.84-26.89,11.43,0,24.48,2.74,32.21,7.41l-7.73,15.3a47,47,0,0,0-24.64-6.45c-12.24,0-18,4-18,9.67,0,17.39,53.15,1.93,53.15,35.58,0,16.11-14.82,26.58-39,26.58C1094,157,1079.71,152.85,1072,147.37Z"/><path class="cls-1" d="M1213.21,151.24c-4.83,3.86-12.07,5.8-19.32,5.8-18.84,0-29.63-10-29.63-29V86.66h-14.17V70.56h14.17V50.91h20.13V70.56h23v16.1h-23v40.91c0,8.37,4.18,12.88,11.91,12.88a18.15,18.15,0,0,0,11.28-3.54Z"/><path class="cls-1" d="M1298.56,105.5v50.41h-19V145.44c-4.83,7.41-14.17,11.6-27,11.6-19.65,0-32-10.79-32-25.77,0-14.33,9.67-25.6,35.75-25.6h22.23v-1.29c0-11.76-7.09-18.68-21.42-18.68-9.66,0-19.65,3.22-26.09,8.53L1223,79.58c9.18-7.09,22.55-10.63,36.39-10.63C1284.23,69,1298.56,80.71,1298.56,105.5ZM1278.44,129V119h-20.78c-13.69,0-17.39,5.15-17.39,11.43,0,7.25,6.12,11.92,16.43,11.92C1266.52,142.38,1275.05,137.87,1278.44,129Z"/><path class="cls-1" d="M1404.37,69.92v86h-19.16V145c-6.45,7.89-16.59,12.08-27.7,12.08-22.06,0-37-12.08-37-38V69.92h20.13v46.37c0,15.62,7.41,23,20.13,23,14,0,23.51-8.69,23.51-25.92V69.92Z"/><path class="cls-1" d="M1477.33,69V88.11a25.7,25.7,0,0,0-4.67-.48c-15.3,0-25,9-25,26.57v41.71h-20.13v-86h19.16V82.48C1452.53,73.46,1463,69,1477.33,69Z"/><path class="cls-1" d="M1562.68,105.5v50.41h-19V145.44c-4.83,7.41-14.17,11.6-27.06,11.6-19.64,0-32-10.79-32-25.77,0-14.33,9.66-25.6,35.75-25.6h22.22v-1.29c0-11.76-7.09-18.68-21.42-18.68-9.66,0-19.64,3.22-26.09,8.53l-7.89-14.65c9.18-7.09,22.55-10.63,36.4-10.63C1548.35,69,1562.68,80.71,1562.68,105.5ZM1542.55,129V119h-20.77c-13.69,0-17.4,5.15-17.4,11.43,0,7.25,6.12,11.92,16.43,11.92C1530.63,142.38,1539.17,137.87,1542.55,129Z"/><path class="cls-1" d="M1669.93,106.63v49.28H1649.8v-46.7c0-15.3-7.56-22.71-20.45-22.71-14.33,0-24,8.7-24,25.93v43.48h-20.13v-86h19.16V81C1611,73.14,1621.46,69,1634,69,1654.64,69,1669.93,80.71,1669.93,106.63Z"/><path class="cls-1" d="M1744,151.24c-4.84,3.86-12.08,5.8-19.33,5.8-18.84,0-29.63-10-29.63-29V86.66h-14.17V70.56h14.17V50.91h20.13V70.56h23v16.1h-23v40.91c0,8.37,4.19,12.88,11.92,12.88a18.14,18.14,0,0,0,11.27-3.54Z"/><path class="cls-1" d="M849,106.28a2.63,2.63,0,0,0,0-3.72L820.24,73.73h0s-.18-37-.16-41.23a2.81,2.81,0,0,0-.69-2.1,2.65,2.65,0,0,0-2-.68L776,29.84,747,.77a2.64,2.64,0,0,0-3.74,0L714.45,29.72H673.69a3.16,3.16,0,0,0-2.47.67,3.16,3.16,0,0,0-.66,2.48c0,3.29,0,40.84,0,41.12l-28.87,28.76a2.63,2.63,0,0,0,0,3.72c6.2,6.27,26.06,26.31,29.14,29.31,0,0-.16,37.62-.28,40.52a2.72,2.72,0,0,0,3.08,3.17h0l41.62-.07s26.3,27.23,28.13,29.1a2.77,2.77,0,0,0,2,.94h0a3,3,0,0,0,2.09-1.07s24.4-24.48,29-29.1l40.69.2h0a3,3,0,0,0,2.29-.79,3.08,3.08,0,0,0,.7-2.26c-.06-1.32,0-41.42,0-41.42Zm-37.57-68-.06,28.87c-5.88-4-12.81-1.71-14.85-.81V53H783.42a19.85,19.85,0,0,0-1.15-14.75C788.34,38.28,811.38,38.26,811.38,38.26ZM800.16,88.48c-.84.06-3.33,0-3.54,0V76.7c.08,0,5.7-6.14,14.13.26C810.75,77,811.05,87.29,800.16,88.48Zm-28-49.59c6.4,8.43.3,14,.26,14.13H760.64c0-.21-.06-2.69,0-3.54C761.84,38.6,772.16,38.89,772.16,38.89Zm-27.25-28h.27S753.25,18.92,759.3,25l6.18,6.26c-3.31,1.26-7.56,3.13-10.38,8.25A23.38,23.38,0,0,0,752.43,53H737.77s.67-8.37-2.95-14.13a19.2,19.2,0,0,0-10.26-7.54C729.67,26.24,744.6,11.19,744.91,10.87Zm-27.54,28s10.33-.29,11.53,10.59c.05.85,0,3.33,0,3.54H717.12C717.08,52.94,711,47.32,717.37,38.89Zm-38.52-.63s28.65.05,28.92,0a14.54,14.54,0,0,0-.83,14.8H693V66.35a14.83,14.83,0,0,0-14.16,1.05C678.82,61,678.85,41.6,678.85,38.26Zm-.06,38.19c8.42-6.4,14.05-.3,14.13-.26V88c-.21,0-2.7.06-3.54,0C678.49,86.78,678.79,76.45,678.79,76.45ZM672,125.19c-4.72-4.74-20.34-20.28-20.63-20.56,0,0,12.74-12.73,18.64-18.65h0l1.94-1.75C679.58,98.34,693,97.15,693,97.15v15a17.89,17.89,0,0,0-12.68,2.4C673.51,118.74,672,124.87,672,125.19Zm17.46-4c.85-.06,3.33,0,3.54,0V133c-.07,0-5.7,6.14-14.13-.26C678.83,132.72,678.54,122.39,689.42,121.2Zm-10.58,49.72V146.2h0v-4.14a19.3,19.3,0,0,0,8.07,1.66,32.2,32.2,0,0,0,6.09-1v13.75h14.19a18.51,18.51,0,0,0-1.09,6.44,19,19,0,0,0,1.86,8C701.24,170.93,678.84,170.92,678.84,170.92Zm38.9,0c-6.4-8.43-.3-14.06-.26-14.13h11.78c0,.21.06,2.69,0,3.54C728.07,171.2,717.74,170.91,717.74,170.91Zm27.36,27.47s-19.78-20-20.54-20.39a19.13,19.13,0,0,0,8.32-6,20.89,20.89,0,0,0,4.67-13v-.19h0l0-2.3h15l.17,2.27,0,.09a23.94,23.94,0,0,0,.19,2.57c1.5,11.38,12.19,16.51,12.68,16.54C761.52,182,745.64,197.85,745.1,198.38Zm27.66-27.75s-10.33.29-11.52-10.6c-.06-.84,0-3.33,0-3.54H773C773.06,156.57,779.16,162.2,772.76,170.63Zm-71.44-22.45V61.34h86.83v86.84Zm81.17,22.66a21,21,0,0,0,1.61-8,21.75,21.75,0,0,0-.38-4.06h0c-.16-1-.34-1.87-.43-2.3h13.2V142.78a24.06,24.06,0,0,0,6.67,1,19,19,0,0,0,8.16-2.07s.06,26.83.07,29.17Zm14.13-38.27V120.79c.21,0,2.7-.06,3.54,0,10.89,1.19,10.59,11.52,10.59,11.52C802.32,138.71,796.7,132.61,796.62,132.57Zm21.86-7.35c-4.82-16.47-22-13.11-22-13.11v-15A25.37,25.37,0,0,0,810,94.23c5.8-3.32,8.21-10,8.23-10.29,1.91,1.9,19.67,19.6,20.62,20.48l.16.15C838.94,104.65,818.71,124.78,818.48,125.22Z"/><path class="cls-1" d="M743,123.22h28.44v8.32H734.58V86.19H709.64v53.67h70.11v-25H751.3V100.18h8.29v6.28h20.16V86.29H759.59v5.57H751.3V78h28.54V69.66H743Zm-16.73,8.32H718V94.71h8.31ZM766.59,93.3h6.15v6.15h-6.15Z"/><rect class="cls-1" x="726.26" y="69.66" width="8.32" height="8.32"/><rect class="cls-1" x="709.75" y="69.66" width="8.32" height="8.32"/></g></g></svg>