<svg xmlns="http://www.w3.org/2000/svg" viewBox="0 0 1857.46 266.86"><defs><style>.cls-1{fill:#231f20;}.cls-2{fill:#fff;}.cls-3{fill:#d2aa56;}</style></defs><title>Asset 2</title><g id="Layer_2" data-name="Layer 2"><g id="Layer_1-2" data-name="Layer 1"><rect class="cls-1" width="1857.46" height="266.86"/><path class="cls-2" d="M905.44,135.65a2.63,2.63,0,0,0,0-3.72L876.73,103.1h0s-.18-37-.16-41.23a2.78,2.78,0,0,0-.69-2.09,2.64,2.64,0,0,0-2-.69l-41.4.13-29-29.07a2.63,2.63,0,0,0-3.73,0L770.94,59.09H730.19a2.57,2.57,0,0,0-3.14,3.14c0,3.3,0,40.85,0,41.12l-28.87,28.76a2.63,2.63,0,0,0,0,3.72c6.2,6.27,26.06,26.31,29.14,29.31,0,0-.15,37.62-.27,40.52a3.1,3.1,0,0,0,.71,2.37,3.14,3.14,0,0,0,2.36.81h0c6.1,0,40.79-.06,41.62-.07,0,0,26.3,27.23,28.14,29.1a2.74,2.74,0,0,0,2,.93h0a2.91,2.91,0,0,0,2.08-1.07s24.4-24.47,29-29.1c0,0,32.95.18,40.69.2h0a3,3,0,0,0,2.28-.79,3.08,3.08,0,0,0,.7-2.26c-.06-1.32,0-41.42,0-41.42Z"/><path class="cls-3" d="M160,185.28l-.16-74.72-37,61.84H113.5l-37-60.87v73.75h-20V72.56H73.72l44.77,74.72,44-74.72h17.23l.16,112.72Z"/><path class="cls-3" d="M277.12,134.88v50.4h-19V174.81c-4.83,7.41-14.17,11.6-27.05,11.6-19.65,0-32-10.79-32-25.77,0-14.33,9.66-25.6,35.75-25.6H257v-1.29c0-11.76-7.09-18.68-21.42-18.68-9.66,0-19.65,3.22-26.09,8.53L201.59,109c9.18-7.09,22.55-10.63,36.4-10.63C262.78,98.32,277.12,110.08,277.12,134.88ZM257,158.39v-10H236.21c-13.68,0-17.39,5.16-17.39,11.44,0,7.24,6.12,11.91,16.43,11.91C245.07,171.75,253.61,167.25,257,158.39Z"/><path class="cls-3" d="M334.77,148.4l-15,14.17v22.71H299.67V65.79H319.8v72.15l41.71-38.65h24.15l-35.91,36.07L389,185.28H364.56Z"/><path class="cls-3" d="M434,148.4l-15,14.17v22.71H398.87V65.79H419v72.15l41.71-38.65h24.15L449,135.36l39.29,49.92H463.77Z"/><path class="cls-3" d="M568.44,134.88v50.4h-19V174.81c-4.83,7.41-14.17,11.6-27.05,11.6-19.65,0-32.05-10.79-32.05-25.77,0-14.33,9.66-25.6,35.75-25.6h22.22v-1.29c0-11.76-7.08-18.68-21.41-18.68-9.67,0-19.65,3.22-26.09,8.53L492.92,109c9.18-7.09,22.54-10.63,36.39-10.63C554.11,98.32,568.44,110.08,568.44,134.88Zm-20.13,23.51v-10H527.54c-13.69,0-17.39,5.16-17.39,11.44,0,7.24,6.12,11.91,16.42,11.91C536.4,171.75,544.93,167.25,548.31,158.39Z"/><path class="cls-3" d="M675.7,136v49.28H655.57v-46.7c0-15.3-7.57-22.71-20.45-22.71-14.33,0-24,8.7-24,25.93v43.48H591V65.79h20.13v43.48c6.61-7.08,16.75-11,28.67-11C660.4,98.32,675.7,110.08,675.7,136Z"/><path class="cls-3" d="M1002.53,185.28l-23-33a39.53,39.53,0,0,1-4.35.16H949.71v32.85H928.78V72.56h46.38c29.63,0,48,15.13,48,40.09,0,17.07-8.7,29.63-24,35.59l25.93,37Zm-28.34-95H949.71V135.2h24.48c18.36,0,27.86-8.37,27.86-22.55S992.55,90.27,974.19,90.27Z"/><path class="cls-3" d="M1121.87,148.73h-67.48c2.42,12.56,12.88,20.61,27.86,20.61,9.66,0,17.23-3.06,23.35-9.34l10.79,12.4c-7.73,9.18-19.81,14-34.62,14-28.83,0-47.51-18.52-47.51-44.13s18.84-44,44.45-44c25.12,0,43.48,17.55,43.48,44.45C1122.19,144.38,1122,146.79,1121.87,148.73Zm-67.64-13.37H1103c-1.61-12.4-11.11-20.93-24.31-20.93C1065.66,114.43,1056.16,122.8,1054.23,135.36Z"/><path class="cls-3" d="M1128.47,176.75l7.73-15.3c7.57,5,19.17,8.53,30,8.53,12.72,0,18-3.54,18-9.5,0-16.42-53.14-1-53.14-35.27,0-16.26,14.65-26.89,37.84-26.89,11.44,0,24.48,2.74,32.21,7.41l-7.73,15.3a47.06,47.06,0,0,0-24.64-6.44c-12.24,0-18,4-18,9.66,0,17.39,53.14,1.93,53.14,35.59,0,16.1-14.82,26.57-39,26.57C1150.54,186.41,1136.2,182.22,1128.47,176.75Z"/><path class="cls-3" d="M1269.71,180.61c-4.84,3.87-12.08,5.8-19.33,5.8-18.84,0-29.63-10-29.63-29V116h-14.17V99.93h14.17V80.29h20.13V99.93h23V116h-23v40.9c0,8.37,4.19,12.88,11.92,12.88a18.14,18.14,0,0,0,11.27-3.54Z"/><path class="cls-3" d="M1355.06,134.88v50.4h-19V174.81c-4.82,7.41-14.17,11.6-27,11.6-19.65,0-32-10.79-32-25.77,0-14.33,9.67-25.6,35.75-25.6h22.23v-1.29c0-11.76-7.09-18.68-21.42-18.68-9.66,0-19.65,3.22-26.09,8.53L1279.53,109c9.18-7.09,22.55-10.63,36.4-10.63C1340.72,98.32,1355.06,110.08,1355.06,134.88Zm-20.13,23.51v-10h-20.78c-13.68,0-17.39,5.16-17.39,11.44,0,7.24,6.12,11.91,16.43,11.91C1323,171.75,1331.55,167.25,1334.93,158.39Z"/><path class="cls-3" d="M1460.86,99.29v86H1441.7V174.33c-6.44,7.89-16.59,12.08-27.7,12.08-22.06,0-37-12.08-37-38V99.29h20.13v46.38c0,15.62,7.41,23,20.13,23,14,0,23.51-8.69,23.51-25.92V99.29Z"/><path class="cls-3" d="M1533.82,98.32v19.17a24.91,24.91,0,0,0-4.67-.49c-15.3,0-25,9-25,26.57v41.71h-20.13v-86h19.16v12.56C1509,102.83,1519.49,98.32,1533.82,98.32Z"/><path class="cls-3" d="M1619.17,134.88v50.4h-19V174.81c-4.83,7.41-14.17,11.6-27.06,11.6-19.64,0-32-10.79-32-25.77,0-14.33,9.66-25.6,35.75-25.6H1599v-1.29c0-11.76-7.08-18.68-21.42-18.68-9.66,0-19.64,3.22-26.08,8.53L1543.65,109c9.18-7.09,22.54-10.63,36.39-10.63C1604.84,98.32,1619.17,110.08,1619.17,134.88ZM1599,158.39v-10h-20.77c-13.69,0-17.39,5.16-17.39,11.44,0,7.24,6.12,11.91,16.42,11.91C1587.13,171.75,1595.66,167.25,1599,158.39Z"/><path class="cls-3" d="M1726.43,136v49.28H1706.3v-46.7c0-15.3-7.57-22.71-20.45-22.71-14.34,0-24,8.7-24,25.93v43.48h-20.13v-86h19.16V110.4c6.61-7.89,17.07-12.08,29.64-12.08C1711.13,98.32,1726.43,110.08,1726.43,136Z"/><path class="cls-3" d="M1800.51,180.61c-4.83,3.87-12.08,5.8-19.33,5.8-18.84,0-29.63-10-29.63-29V116h-14.17V99.93h14.17V80.29h20.13V99.93h23V116h-23v40.9c0,8.37,4.19,12.88,11.92,12.88a18.14,18.14,0,0,0,11.27-3.54Z"/><path class="cls-3" d="M905.44,135.65a2.63,2.63,0,0,0,0-3.72L876.73,103.1h0s-.18-37-.16-41.23a2.78,2.78,0,0,0-.69-2.09,2.64,2.64,0,0,0-2-.69l-41.4.13-29-29.07a2.63,2.63,0,0,0-3.73,0L770.94,59.09H730.19a2.57,2.57,0,0,0-3.14,3.14c0,3.3,0,40.85,0,41.12l-28.87,28.76a2.63,2.63,0,0,0,0,3.72c6.2,6.27,26.06,26.31,29.14,29.31,0,0-.15,37.62-.27,40.52a3.1,3.1,0,0,0,.71,2.37,3.14,3.14,0,0,0,2.36.81h0c6.1,0,40.79-.06,41.62-.07,0,0,26.3,27.23,28.14,29.1a2.74,2.74,0,0,0,2,.93h0a2.91,2.91,0,0,0,2.08-1.07s24.4-24.47,29-29.1c0,0,32.95.18,40.69.2h0a3,3,0,0,0,2.28-.79,3.08,3.08,0,0,0,.7-2.26c-.06-1.32,0-41.42,0-41.42Zm-37.57-68-.06,28.87c-5.88-4-12.81-1.71-14.85-.81V82.39H839.91a19.85,19.85,0,0,0-1.15-14.75C844.83,67.65,867.87,67.63,867.87,67.63Zm-11.22,50.22c-.84.06-3.33,0-3.54,0V106.07c.08,0,5.71-6.14,14.14.26C867.25,106.33,867.54,116.66,856.65,117.85Zm-28-49.59c6.4,8.43.29,14.06.26,14.13H817.14c0-.21-.06-2.69,0-3.54C818.33,68,828.66,68.26,828.66,68.26Zm-27.26-28h.28s8.06,8,14.11,14.13L822,60.63c-3.31,1.26-7.56,3.13-10.38,8.25a23.32,23.32,0,0,0-2.66,13.51H794.27s.67-8.37-3-14.13c-3.49-5.56-10-7.5-10.26-7.54C786.16,55.61,801.1,40.56,801.4,40.25Zm-27.53,28S784.2,68,785.39,78.85c.06.85,0,3.33,0,3.54H773.61C773.57,82.32,767.47,76.69,773.87,68.26Zm-38.53-.63s28.66.06,28.92,0a14.56,14.56,0,0,0-.83,14.8H749.49V95.72a14.86,14.86,0,0,0-14.16,1C735.32,90.36,735.34,71,735.34,67.63Zm-.06,38.19c8.43-6.4,14.05-.29,14.13-.26v11.78c-.21,0-2.69.06-3.54,0C735,116.15,735.28,105.82,735.28,105.82Zm-6.82,48.74c-4.73-4.74-20.35-20.28-20.63-20.56,0,0,12.73-12.73,18.63-18.65h0l1.94-1.75c7.67,14.12,21.09,12.93,21.09,12.93v14.95a17.89,17.89,0,0,0-12.68,2.4C730,148.11,728.49,154.24,728.46,154.56Zm17.46-4c.84-.06,3.33,0,3.54,0v11.78c-.08,0-5.71,6.14-14.14-.25C735.32,162.1,735,151.77,745.92,150.58Zm-10.59,49.71V175.57h0v-4.14a19.15,19.15,0,0,0,8.08,1.66,31.36,31.36,0,0,0,6.08-1v13.76h14.19a18.25,18.25,0,0,0-1.08,6.44,19,19,0,0,0,1.85,8Zm38.9,0c-6.4-8.43-.29-14.05-.26-14.13h11.78c0,.21.06,2.7,0,3.54C784.56,200.58,774.23,200.28,774.23,200.28Zm27.36,27.47s-19.78-20-20.54-20.39a19.08,19.08,0,0,0,8.33-6,20.94,20.94,0,0,0,4.66-13v-.19h0v-2.29h15l.17,2.26,0,.09a23.91,23.91,0,0,0,.18,2.57c1.5,11.38,12.2,16.51,12.68,16.54C818,211.36,802.13,227.22,801.59,227.75ZM829.25,200s-10.33.29-11.52-10.59c-.06-.85,0-3.33,0-3.54h11.78C829.55,185.94,835.65,191.57,829.25,200Zm-71.44-22.45V90.71h86.84v86.84ZM839,200.21a21,21,0,0,0,1.23-12.05h0c-.17-1-.35-1.87-.44-2.29H853V172.15a24.06,24.06,0,0,0,6.67,1,19.08,19.08,0,0,0,8.16-2.06s.07,26.82.08,29.16Zm14.13-38.27V150.16c.21,0,2.7-.06,3.54,0,10.89,1.19,10.6,11.52,10.6,11.52C858.82,168.08,853.19,162,853.11,161.94ZM875,154.59c-4.81-16.47-22-13.11-22-13.11v-15a25.37,25.37,0,0,0,13.55-2.92c5.8-3.32,8.21-10,8.24-10.29,1.9,1.9,19.66,19.6,20.61,20.49a1.07,1.07,0,0,1,.16.14C895.43,134,875.21,154.15,875,154.59Z"/><path class="cls-3" d="M799.48,152.59h28.45v8.32H791.07V115.56H766.14v53.67h70.11v-25H807.8V129.55h8.28v6.28h20.16V115.67H816.08v5.56H807.8V107.35h28.53V99H799.48Zm-16.73,8.32h-8.31V124.08h8.31Zm40.34-38.24h6.15v6.15h-6.15Z"/><rect class="cls-3" x="782.75" y="99.03" width="8.32" height="8.32"/><rect class="cls-3" x="766.24" y="99.03" width="8.32" height="8.32"/><path class="cls-2" d="M1249.25,215c0,6.81-5,11-13.18,11h-7v8.93h-5.75V204h12.73C1244.21,204,1249.25,208.14,1249.25,215Zm-5.79,0c0-3.9-2.61-6.15-7.65-6.15h-6.72v12.29h6.72C1240.85,221.14,1243.46,218.89,1243.46,215Z"/><path class="cls-2" d="M1274,221.1v13.84h-5.22v-2.87c-1.33,2-3.89,3.18-7.43,3.18-5.4,0-8.8-3-8.8-7.08,0-3.93,2.65-7,9.82-7h6.1v-.35c0-3.23-2-5.13-5.88-5.13a11.69,11.69,0,0,0-7.17,2.34l-2.16-4a16.57,16.57,0,0,1,10-2.92C1270.08,211.06,1274,214.29,1274,221.1Zm-5.53,6.45v-2.74h-5.71c-3.76,0-4.77,1.42-4.77,3.14,0,2,1.68,3.28,4.51,3.28S1267.56,230,1268.49,227.55Z"/><path class="cls-2" d="M1290.73,224.81l-4.11,3.89v6.24h-5.53V202.13h5.53v19.81l11.45-10.62h6.64l-9.87,9.91,10.8,13.71h-6.73Z"/><path class="cls-2" d="M1308.24,204.12a3.37,3.37,0,0,1,3.54-3.32,3.29,3.29,0,0,1,3.54,3.18,3.54,3.54,0,0,1-7.08.14Zm.76,7.2h5.52v23.62H1309Z"/><path class="cls-2" d="M1319.08,232.6l2.12-4.2a15.9,15.9,0,0,0,8.23,2.34c3.49,0,5-1,5-2.61,0-4.51-14.59-.27-14.59-9.69,0-4.46,4-7.38,10.39-7.38a18.8,18.8,0,0,1,8.84,2l-2.12,4.2a13,13,0,0,0-6.77-1.76c-3.36,0-5,1.1-5,2.65,0,4.78,14.59.53,14.59,9.77,0,4.43-4.06,7.3-10.7,7.3C1325.14,235.25,1321.2,234.1,1319.08,232.6Z"/><path class="cls-2" d="M1358.75,233.66a8.71,8.71,0,0,1-5.31,1.59c-5.17,0-8.14-2.74-8.14-8V215.92h-3.89V211.5h3.89v-5.39h5.53v5.39h6.32v4.42h-6.32v11.24c0,2.3,1.15,3.53,3.27,3.53a4.94,4.94,0,0,0,3.1-1Z"/><path class="cls-2" d="M1383.07,221.1v13.84h-5.22v-2.87c-1.33,2-3.89,3.18-7.43,3.18-5.39,0-8.8-3-8.8-7.08,0-3.93,2.65-7,9.82-7h6.1v-.35c0-3.23-2-5.13-5.88-5.13a11.66,11.66,0,0,0-7.16,2.34l-2.17-4a16.57,16.57,0,0,1,10-2.92C1379.13,211.06,1383.07,214.29,1383.07,221.1Zm-5.53,6.45v-2.74h-5.7c-3.76,0-4.78,1.42-4.78,3.14,0,2,1.68,3.28,4.51,3.28S1376.61,230,1377.54,227.55Z"/><path class="cls-2" d="M1413.41,221.41v13.53h-5.53V222.12c0-4.21-2.08-6.24-5.62-6.24-3.93,0-6.59,2.39-6.59,7.12v11.94h-5.53V211.32h5.27v3.06c1.81-2.17,4.68-3.32,8.13-3.32C1409.2,211.06,1413.41,214.29,1413.41,221.41Z"/><path class="cls-2" d="M1419.69,204.12a3.36,3.36,0,0,1,3.53-3.32,3.29,3.29,0,0,1,3.54,3.18,3.54,3.54,0,0,1-7.07.14Zm.75,7.2H1426v23.62h-5.52Z"/><path class="cls-2" d="M1487.21,204H1493v31h-5.75Z"/><path class="cls-2" d="M1524.05,221.41v13.53h-5.53V222.12c0-4.21-2.08-6.24-5.62-6.24-3.93,0-6.59,2.39-6.59,7.12v11.94h-5.52V211.32h5.26v3.06c1.81-2.17,4.69-3.32,8.14-3.32C1519.85,211.06,1524.05,214.29,1524.05,221.41Z"/><path class="cls-2" d="M1554.43,202.13v32.81h-5.31v-3.05a9.76,9.76,0,0,1-7.83,3.36c-6.85,0-11.94-4.78-11.94-12.12s5.09-12.07,11.94-12.07a9.69,9.69,0,0,1,7.61,3.18V202.13Zm-5.44,21c0-4.51-3-7.38-7-7.38s-7,2.87-7,7.38,3,7.39,7,7.39S1549,227.64,1549,223.13Z"/><path class="cls-2" d="M1560.93,204.12a3.37,3.37,0,0,1,3.54-3.32A3.29,3.29,0,0,1,1568,204a3.54,3.54,0,0,1-7.07.14Zm.75,7.2h5.53v23.62h-5.53Z"/><path class="cls-2" d="M1594.23,221.1v13.84H1589v-2.87c-1.33,2-3.89,3.18-7.43,3.18-5.4,0-8.8-3-8.8-7.08,0-3.93,2.65-7,9.82-7h6.1v-.35c0-3.23-2-5.13-5.88-5.13a11.71,11.71,0,0,0-7.17,2.34l-2.16-4a16.57,16.57,0,0,1,10-2.92C1590.29,211.06,1594.23,214.29,1594.23,221.1Zm-5.53,6.45v-2.74H1583c-3.76,0-4.78,1.42-4.78,3.14,0,2,1.68,3.28,4.51,3.28S1587.77,230,1588.7,227.55Z"/><path class="cls-2" d="M1624.56,221.41v13.53H1619V222.12c0-4.21-2.08-6.24-5.62-6.24-3.94,0-6.59,2.39-6.59,7.12v11.94h-5.53V211.32h5.27v3.06c1.81-2.17,4.68-3.32,8.13-3.32C1620.36,211.06,1624.56,214.29,1624.56,221.41Z"/><path class="cls-2" d="M1641.86,223.13c0-7.07,5.3-12.07,12.78-12.07,4.59,0,8.26,1.9,10.08,5.48l-4.25,2.48a6.67,6.67,0,0,0-5.88-3.27c-4.07,0-7.16,2.83-7.16,7.38s3.09,7.39,7.16,7.39a6.69,6.69,0,0,0,5.88-3.27l4.25,2.47c-1.82,3.54-5.49,5.53-10.08,5.53C1647.16,235.25,1641.86,230.21,1641.86,223.13Z"/><path class="cls-2" d="M1692.36,211.32v23.62h-5.27v-3a9.62,9.62,0,0,1-7.6,3.32c-6.06,0-10.17-3.32-10.17-10.44V211.32h5.52v12.74c0,4.29,2,6.33,5.53,6.33,3.85,0,6.46-2.39,6.46-7.12v-12Z"/><path class="cls-2" d="M1698.86,204.12a3.37,3.37,0,0,1,3.54-3.32,3.29,3.29,0,0,1,3.53,3.18,3.54,3.54,0,0,1-7.07.14Zm.75,7.2h5.53v23.62h-5.53Z"/><path class="cls-2" d="M1709.69,232.6l2.12-4.2a15.92,15.92,0,0,0,8.23,2.34c3.49,0,5-1,5-2.61,0-4.51-14.59-.27-14.59-9.69,0-4.46,4-7.38,10.39-7.38a18.87,18.87,0,0,1,8.85,2l-2.13,4.2a13,13,0,0,0-6.76-1.76c-3.36,0-5,1.1-5,2.65,0,4.78,14.6.53,14.6,9.77,0,4.43-4.07,7.3-10.7,7.3C1715.75,235.25,1711.81,234.1,1709.69,232.6Z"/><path class="cls-2" d="M1734.41,204.12a3.37,3.37,0,0,1,3.54-3.32,3.29,3.29,0,0,1,3.54,3.18,3.54,3.54,0,0,1-7.08.14Zm.75,7.2h5.53v23.62h-5.53Z"/><path class="cls-2" d="M1771.2,221.41v13.53h-5.52V222.12c0-4.21-2.08-6.24-5.62-6.24-3.93,0-6.59,2.39-6.59,7.12v11.94h-5.53V211.32h5.27v3.06c1.81-2.17,4.68-3.32,8.13-3.32C1767,211.06,1771.2,214.29,1771.2,221.41Z"/><path class="cls-2" d="M1800.57,224.9H1782c.66,3.45,3.54,5.66,7.65,5.66a8.48,8.48,0,0,0,6.41-2.56l3,3.4c-2.12,2.52-5.43,3.85-9.5,3.85-7.92,0-13-5.09-13-12.12s5.18-12.07,12.21-12.07,11.94,4.82,11.94,12.21C1800.66,223.71,1800.61,224.37,1800.57,224.9ZM1782,221.23h13.39a6.43,6.43,0,0,0-6.67-5.75A6.53,6.53,0,0,0,1782,221.23Z"/><path class="cls-2" d="M1470.07,234.81l-4.42-4.27a17.71,17.71,0,0,1-11.8,4.22c-7.44,0-12.81-3.87-12.81-9.39,0-4.37,2.41-7.44,8.13-10.65-2.86-2.87-3.91-5.18-3.91-7.74,0-4.92,4-8.29,10.19-8.29,5.68,0,9.4,3,9.4,7.74,0,3.62-2.11,6.23-7.19,9.09l7.59,7.24a22.93,22.93,0,0,0,2-5.93l5.07,1.66a23.88,23.88,0,0,1-3.16,8l4.42,4.22Zm-8.14-7.83-9.29-8.9c-4.07,2.26-5.47,4.12-5.47,6.64,0,2.91,2.81,4.92,7.13,4.92A11.81,11.81,0,0,0,1461.93,227Zm-11-20.1c0,1.56.66,2.71,3.17,5.23,4.07-2.21,5.37-3.67,5.37-5.58s-1.45-3.37-4.07-3.37C1452.64,203.16,1451,204.72,1451,206.88Z"/></g></g></svg>