<svg xmlns="http://www.w3.org/2000/svg" viewBox="0 0 208.82 209.44"><defs><style>.cls-1{fill:#d2aa56;}</style></defs><title>Asset 4</title><g id="Layer_2" data-name="Layer 2"><g id="Layer_1-2" data-name="Layer 1"><path class="cls-1" d="M208.05,106.28a2.63,2.63,0,0,0,0-3.72L179.33,73.73h0s-.18-37-.16-41.23a2.79,2.79,0,0,0-.68-2.1,2.65,2.65,0,0,0-2-.68l-41.39.13L106.09.77a2.63,2.63,0,0,0-3.73,0L73.54,29.72H32.79a3.16,3.16,0,0,0-2.47.67,3.16,3.16,0,0,0-.66,2.48c0,3.29,0,40.84,0,41.12L.78,102.75a2.63,2.63,0,0,0,0,3.72C7,112.74,26.83,132.78,29.9,135.78c0,0-.15,37.62-.27,40.52a2.72,2.72,0,0,0,3.08,3.17h0l41.62-.07s26.3,27.23,28.13,29.1a2.77,2.77,0,0,0,2,.94h0a3,3,0,0,0,2.09-1.07s24.39-24.48,29-29.1l40.68.2h0a2.65,2.65,0,0,0,3-3.05c-.06-1.32,0-41.42,0-41.42Zm-37.58-68-.06,28.87c-5.87-4-12.81-1.71-14.84-.81V53h-13a19.91,19.91,0,0,0-1.15-14.75C147.44,38.28,170.47,38.26,170.47,38.26ZM159.26,88.48c-.85.06-3.33,0-3.54,0V76.7c.07,0,5.7-6.14,14.13.26C169.85,77,170.14,87.29,159.26,88.48Zm-28-49.59c6.4,8.43.3,14,.26,14.13H119.74c0-.21-.06-2.69,0-3.54C120.93,38.6,131.26,38.89,131.26,38.89ZM104,10.87h.27S112.34,18.92,118.4,25l6.18,6.26c-3.32,1.26-7.57,3.13-10.39,8.25A23.42,23.42,0,0,0,111.53,53H96.87s.67-8.37-3-14.13a19.24,19.24,0,0,0-10.27-7.54C88.76,26.24,103.7,11.19,104,10.87Zm-27.54,28S86.8,38.6,88,49.48c.06.85,0,3.33,0,3.54H76.21C76.17,52.94,70.07,47.32,76.47,38.89ZM38,38.26s28.65.05,28.91,0A14.55,14.55,0,0,0,66,53h-14V66.35A14.81,14.81,0,0,0,37.94,67.4C37.92,61,38,41.6,38,38.26Zm-.07,38.19c8.43-6.4,14.06-.3,14.13-.26V88c-.21,0-2.69.06-3.53,0C37.59,86.78,37.88,76.45,37.88,76.45Zm-6.82,48.74c-4.73-4.74-20.34-20.28-20.63-20.56L29.07,86h0L31,84.23c7.68,14.11,21.09,12.92,21.09,12.92v15a17.86,17.86,0,0,0-12.67,2.4C32.6,118.74,31.09,124.87,31.06,125.19Zm17.46-4c.85-.06,3.33,0,3.54,0V133c-.08,0-5.7,6.14-14.13-.26C37.93,132.72,37.64,122.39,48.52,121.2ZM37.94,170.92s0-21,0-24.72h0v-4.14A19.34,19.34,0,0,0,46,143.72a32,32,0,0,0,6.08-1v13.75H66.28a18.64,18.64,0,0,0-1.08,6.44,19,19,0,0,0,1.86,8C60.34,170.93,37.94,170.92,37.94,170.92Zm38.89,0c-6.39-8.43-.29-14.06-.25-14.13H88.36c0,.21,0,2.69,0,3.54C87.16,171.2,76.83,170.91,76.83,170.91Zm27.36,27.47s-19.78-20-20.54-20.39A19.16,19.16,0,0,0,92,172a21,21,0,0,0,4.67-13v-.19h0l0-2.3h15l.17,2.27,0,.09a21.61,21.61,0,0,0,.19,2.57c1.49,11.38,12.19,16.51,12.67,16.54C120.62,182,104.74,197.85,104.19,198.38Zm27.67-27.75s-10.33.29-11.52-10.6c-.06-.84,0-3.33,0-3.54h11.78C132.15,156.57,138.26,162.2,131.86,170.63ZM60.41,148.18V61.34h86.84v86.84Zm81.18,22.66a21.29,21.29,0,0,0,1.23-12.05h0c-.17-1-.34-1.87-.43-2.3h13.2V142.78a24.06,24.06,0,0,0,6.67,1,19,19,0,0,0,8.16-2.07s.06,26.83.07,29.17Zm14.13-38.27V120.79c.21,0,2.69-.06,3.54,0,10.88,1.19,10.59,11.52,10.59,11.52C161.42,138.71,155.79,132.61,155.72,132.57Zm21.85-7.35c-4.81-16.47-22-13.11-22-13.11v-15a25.34,25.34,0,0,0,13.54-2.92c5.8-3.32,8.21-10,8.24-10.29,1.9,1.9,19.67,19.6,20.62,20.48l.15.15C198,104.65,177.81,124.78,177.57,125.22Z"/><path class="cls-1" d="M102.08,123.22h28.45v8.32H93.67V86.19H68.74v53.67h70.12v-25H110.4V100.18h8.28v6.28h20.17V86.29H118.68v5.57H110.4V78h28.53V69.66H102.08Zm-16.72,8.32H77.05V94.71h8.31ZM125.69,93.3h6.15v6.15h-6.15Z"/><rect class="cls-1" x="85.36" y="69.66" width="8.32" height="8.32"/><rect class="cls-1" x="68.84" y="69.66" width="8.32" height="8.32"/></g></g></svg>