<?xml version="1.0" encoding="iso-8859-1"?>
<!-- Generator: Adobe Illustrator 18.1.1, SVG Export Plug-In . SVG Version: 6.00 Build 0)  -->
<svg version="1.1" id="Capa_1" xmlns="http://www.w3.org/2000/svg" xmlns:xlink="http://www.w3.org/1999/xlink" x="0px" y="0px"
	 viewBox="0 0 489.072 489.072" style="enable-background:new 0 0 489.072 489.072;" xml:space="preserve">
<g>
	<g>
		<g>
			<path style="fill:#010002;" d="M437.421,419.15c-19.387,5.064-39.415,7.641-59.469,7.641
				c-87.699,0-167.766-48.04-208.978-125.318c-51.738-97.096-30.385-215.716,51.966-288.491L235.638,0l-18.98,4.958
				c-18.728,4.877-36.814,11.925-53.738,20.947C43.226,89.723-2.261,239.013,61.556,358.73
				c42.846,80.392,126.115,130.342,217.269,130.342c40.033,0,79.977-10.023,115.523-28.97c16.924-9.023,32.839-20.078,47.357-32.904
				l14.696-13.006L437.421,419.15z"/>
		</g>
		<g>
			<path style="fill:#010002;" d="M287.132,280.07l44.382-23.337l44.358,23.337l-8.47-49.405l35.896-34.994l-49.609-7.218
				l-22.175-44.927l-22.183,44.935l-49.617,7.218l35.896,34.994L287.132,280.07z"/>
		</g>
	</g>
</g>
<g>
</g>
<g>
</g>
<g>
</g>
<g>
</g>
<g>
</g>
<g>
</g>
<g>
</g>
<g>
</g>
<g>
</g>
<g>
</g>
<g>
</g>
<g>
</g>
<g>
</g>
<g>
</g>
<g>
</g>
</svg>
