<svg id="Capa_1" enable-background="new 0 0 511.701 511.701" height="512" viewBox="0 0 511.701 511.701" width="512" xmlns="http://www.w3.org/2000/svg"><g><g><path d="m438.001 326.676 62.931-62.931c4.36-4.36 4.36-11.428 0-15.788l-62.931-62.931c-2.094-2.094-3.27-4.933-3.27-7.894v-88.998c0-6.166-4.998-11.164-11.164-11.164h-88.998c-2.961 0-5.8-1.176-7.894-3.27l-62.931-62.931c-4.36-4.36-11.428-4.36-15.788 0l-62.93 62.931c-2.094 2.094-4.933 3.27-7.894 3.27h-88.998c-6.166 0-11.164 4.998-11.164 11.164v88.998c0 2.961-1.176 5.8-3.27 7.894l-62.931 62.931c-4.36 4.36-4.36 11.428 0 15.788l62.931 62.931c2.094 2.094 3.27 4.933 3.27 7.894v88.998c0 6.166 4.998 11.164 11.164 11.164h88.998c2.961 0 5.8 1.176 7.894 3.27l62.931 62.931c4.36 4.36 11.428 4.36 15.788 0l62.931-62.931c2.094-2.094 4.933-3.27 7.894-3.27h88.998c6.166 0 11.164-4.998 11.164-11.164v-88.998c-.001-2.961 1.175-5.801 3.269-7.894z" fill="#6ed5a1"/></g><g><path d="m314.261 434.73h20.31c-2.96 0-5.8 1.18-7.9 3.27l-62.93 62.93c-4.36 4.36-11.42 4.36-15.78 0l-2.26-2.26 60.67-60.67c2.09-2.089 4.93-3.27 7.89-3.27z" fill="#46cc8d"/></g><g><path d="m326.671 73.701c2.1 2.09 4.94 3.27 7.9 3.27h-20.31c-2.96 0-5.8-1.18-7.89-3.27l-60.67-60.67 2.26-2.26c4.36-4.36 11.42-4.36 15.78 0z" fill="#46cc8d"/></g><g><path d="m500.931 263.741-62.93 62.93c-2.09 2.1-3.27 4.94-3.27 7.9v89c0 6.16-5 11.16-11.16 11.16h-20.31c6.16 0 11.16-5 11.16-11.16v-92.496c0-2.96 1.18-5.8 3.27-7.9l58.465-59.434c4.36-4.36 4.36-11.42 0-15.78l-58.465-58.245c-2.09-2.1-3.27-4.94-3.27-7.9v-93.685c0-6.16-5-11.16-11.16-11.16h20.31c6.16 0 11.16 5 11.16 11.16v89c0 2.96 1.18 5.8 3.27 7.9l62.93 62.93c4.36 4.36 4.36 11.42 0 15.78z" fill="#46cc8d"/></g><g><path d="m396.675 309.558 45.813-45.814c4.36-4.36 4.36-11.428 0-15.788l-45.813-45.814c-2.094-2.094-3.27-4.933-3.27-7.894v-64.79c0-6.166-4.998-11.164-11.164-11.164h-64.79c-2.961 0-5.8-1.176-7.894-3.27l-45.813-45.813c-4.36-4.36-11.428-4.36-15.788 0l-45.813 45.813c-2.094 2.094-4.933 3.27-7.894 3.27h-64.79c-6.166 0-11.164 4.998-11.164 11.164v64.79c0 2.961-1.176 5.8-3.27 7.894l-45.813 45.814c-4.36 4.36-4.36 11.428 0 15.788l45.813 45.814c2.094 2.094 3.27 4.933 3.27 7.894v64.79c0 6.166 4.998 11.164 11.164 11.164h64.79c2.961 0 5.8 1.176 7.894 3.27l45.813 45.813c4.36 4.36 11.428 4.36 15.788 0l45.813-45.813c2.094-2.094 4.933-3.27 7.894-3.27h64.79c6.166 0 11.164-4.998 11.164-11.164v-64.79c0-2.961 1.177-5.8 3.27-7.894z" fill="#e2f6eb"/></g><g><path d="m290.601 393.401h26.85c-2.96 0-5.8 1.18-7.89 3.27l-45.82 45.82c-4.36 4.36-11.42 4.36-15.78 0l-5.54-5.54 40.28-40.28c2.1-2.09 4.94-3.27 7.9-3.27z" fill="#ceefdd"/></g><g><path d="m309.561 115.031c2.09 2.09 4.93 3.27 7.89 3.27h-26.85c-2.96 0-5.8-1.18-7.9-3.27l-40.28-40.28 5.54-5.54c4.36-4.36 11.42-4.36 15.78 0z" fill="#ceefdd"/></g><g><path d="m442.491 263.741-45.82 45.82c-2.09 2.09-3.27 4.93-3.27 7.89v64.79c0 6.17-4.99 11.16-11.16 11.16h-20.14c6.16 0 11.16-4.99 11.16-11.16v-72.32c0-2.96 1.18-5.8 3.27-7.89l40.84-38.29c4.36-4.36 4.36-11.42 0-15.78l-40.84-37.75c-2.09-2.09-3.27-4.93-3.27-7.89v-72.86c0-6.17-5-11.16-11.16-11.16h20.14c6.17 0 11.16 4.99 11.16 11.16v64.79c0 2.96 1.18 5.8 3.27 7.89l45.82 45.82c4.36 4.36 4.36 11.42 0 15.78z" fill="#ceefdd"/></g><g><path d="m361.1 294.85c-15.73 41.393-55.769 70.81-102.683 70.81-60.645 0-109.809-49.164-109.809-109.809s49.164-109.809 109.809-109.809c.89 0 1.786.013 2.67.031-30.457 14.596-51.483 45.711-51.483 81.733 0 50.029 40.553 90.582 90.582 90.582 23.451 0 44.827-8.911 60.914-23.538z" fill="#fece85"/></g><g><path d="m361.1 294.846c-3.128 8.225-7.205 15.975-12.126 23.11-15.061 8.339-32.644 13.119-51.404 13.119-55.85 0-101.13-42.362-101.13-94.619 0-34.964 20.272-65.498 50.411-81.877-22.583 16.476-37.248 43.144-37.248 73.231 0 50.025 40.552 90.577 90.585 90.577 23.453 0 44.823-8.91 60.912-23.541z" fill="#fec165"/></g><g><path d="m300.559 178.967 9.853 19.965c.549 1.112 1.609 1.883 2.836 2.061l22.032 3.201c3.09.449 4.324 4.246 2.088 6.426l-15.943 15.54c-.888.865-1.293 2.112-1.083 3.334l3.764 21.943c.528 3.077-2.702 5.424-5.466 3.971l-19.706-10.36c-1.097-.577-2.409-.577-3.506 0l-19.706 10.36c-2.764 1.453-5.994-.894-5.466-3.971l3.764-21.943c.21-1.222-.196-2.469-1.083-3.334l-15.943-15.54c-2.236-2.179-1.002-5.977 2.088-6.426l22.032-3.201c1.227-.178 2.288-.949 2.836-2.061l9.853-19.965c1.381-2.8 5.374-2.8 6.756 0z" fill="#fece85"/></g><g><path d="m321.423 226.158c-.887.87-1.292 2.118-1.081 3.339l3.761 21.941c.527 3.075-2.698 5.422-5.466 3.972l-11.695-6.151c0-.193-.018-.404-.053-.615l-4.086-23.786c-.22-1.327.22-2.671 1.177-3.612l17.284-16.845c.624-.606.993-1.336 1.151-2.083l12.864 1.872c3.093.448 4.323 4.253 2.091 6.432z" fill="#fec165"/></g><g><path d="m248.906 204.44c-1.335 4.108-.243 8.533 2.851 11.551l14.538 14.17-3.433 20.011c-.729 4.258.988 8.48 4.483 11.019 3.496 2.539 8.042 2.867 11.865.857l17.97-9.447 17.969 9.447c1.663.874 3.463 1.307 5.254 1.307 2.326-.001 4.638-.729 6.613-2.165 3.495-2.539 5.212-6.762 4.48-11.019l-3.432-20.01 14.537-14.17c3.094-3.016 4.187-7.441 2.853-11.55-1.335-4.108-4.82-7.048-9.097-7.669l-20.089-2.919-8.985-18.206c-1.912-3.873-5.782-6.28-10.102-6.28-.001 0-.001 0-.002 0-4.319 0-8.19 2.405-10.104 6.28l-8.984 18.206-20.091 2.919c-4.273.622-7.759 3.56-9.094 7.668zm33.286 3.975c3.671-.534 6.842-2.839 8.482-6.164l6.506-13.183 6.506 13.182c1.641 3.325 4.811 5.63 8.483 6.165l14.547 2.114-10.526 10.26c-2.654 2.588-3.866 6.314-3.24 9.974l2.484 14.488-13.016-6.843c-3.28-1.723-7.199-1.723-10.481.002l-13.012 6.841 2.484-14.486c.628-3.657-.583-7.386-3.239-9.976l-10.527-10.26z"/><path d="m506.235 242.653-62.931-62.932c-.692-.692-1.074-1.612-1.074-2.59v-88.997c0-10.291-8.372-18.664-18.663-18.664h-88.998c-.979 0-1.898-.381-2.591-1.073l-62.93-62.931c-3.526-3.525-8.212-5.466-13.197-5.466s-9.672 1.941-13.197 5.466l-62.932 62.931c-.691.692-1.611 1.073-2.59 1.073h-88.998c-10.291 0-18.663 8.373-18.663 18.664v88.998c0 .978-.382 1.897-1.074 2.591l-62.931 62.93c-3.525 3.526-5.466 8.212-5.466 13.198s1.941 9.672 5.466 13.197l62.931 62.932c.692.692 1.074 1.612 1.074 2.59v88.998c0 10.291 8.372 18.664 18.663 18.664h88.998c.979 0 1.898.381 2.591 1.073l62.931 62.931c3.525 3.524 8.212 5.466 13.197 5.466s9.672-1.941 13.197-5.466l62.932-62.931c.691-.692 1.611-1.073 2.59-1.073h37.713c4.143 0 7.5-3.357 7.5-7.5s-3.357-7.5-7.5-7.5h-37.713c-4.985 0-9.672 1.941-13.197 5.466l-62.932 62.931c-.933.934-2.023 1.073-2.59 1.073s-1.657-.14-2.591-1.073l-62.931-62.931c-3.525-3.524-8.212-5.466-13.197-5.466h-88.998c-2.02 0-3.663-1.644-3.663-3.664v-88.998c0-4.984-1.941-9.671-5.467-13.197l-62.931-62.933c-.934-.933-1.073-2.023-1.073-2.59s.14-1.657 1.073-2.591l62.931-62.931c3.525-3.526 5.467-8.213 5.467-13.197v-88.997c0-2.021 1.644-3.664 3.663-3.664h88.998c4.985 0 9.672-1.941 13.197-5.466l62.932-62.931c.933-.934 2.023-1.073 2.59-1.073s1.657.14 2.591 1.073l62.931 62.931c3.525 3.524 8.212 5.466 13.197 5.466h88.998c2.02 0 3.663 1.644 3.663 3.664v88.998c0 4.984 1.941 9.671 5.467 13.197l62.931 62.932c.934.933 1.073 2.023 1.073 2.59s-.14 1.657-1.073 2.591l-62.931 62.931c-3.525 3.526-5.467 8.213-5.467 13.197v88.998c0 2.021-1.644 3.664-3.663 3.664h-16.603c-4.143 0-7.5 3.357-7.5 7.5s3.357 7.5 7.5 7.5h16.603c10.291 0 18.663-8.373 18.663-18.664v-88.998c0-.978.382-1.897 1.074-2.591l62.931-62.931c3.524-3.525 5.466-8.212 5.466-13.197s-1.942-9.672-5.467-13.198z"/><path d="m400.905 317.452c0-.964.391-1.908 1.073-2.591l45.813-45.813c3.525-3.524 5.468-8.212 5.468-13.197s-1.942-9.673-5.467-13.197l-45.813-45.812c-.683-.684-1.074-1.628-1.074-2.593v-64.789c0-10.291-8.372-18.664-18.663-18.664h-64.79c-.979 0-1.899-.381-2.591-1.073l-45.813-45.813c-3.524-3.525-8.212-5.468-13.197-5.468s-9.673 1.942-13.197 5.467l-45.813 45.813c-.691.692-1.611 1.073-2.591 1.073h-64.79c-10.291 0-18.663 8.373-18.663 18.664v64.789c0 .965-.392 1.909-1.073 2.591l-45.814 45.814c-3.525 3.524-5.468 8.212-5.468 13.197s1.942 9.673 5.467 13.197l45.813 45.812c.683.684 1.074 1.628 1.074 2.593v64.789c0 10.291 8.372 18.664 18.663 18.664h64.79c.979 0 1.899.381 2.591 1.073l45.813 45.813c3.524 3.525 8.212 5.468 13.197 5.468s9.673-1.942 13.197-5.467l45.813-45.813c.691-.692 1.611-1.073 2.591-1.073h64.79c10.291 0 18.663-8.373 18.663-18.664v-64.79zm-9.534-13.198c0 .001 0 .001-.001.002-3.524 3.525-5.465 8.212-5.465 13.196v64.789c0 2.021-1.644 3.664-3.663 3.664h-64.79c-4.985 0-9.673 1.941-13.198 5.466l-45.813 45.814c-.934.934-2.023 1.073-2.59 1.073s-1.656-.14-2.59-1.074l-45.813-45.813c-3.525-3.524-8.213-5.466-13.198-5.466h-64.79c-2.02 0-3.663-1.644-3.663-3.664v-64.789c0-4.984-1.94-9.671-5.466-13.198l-45.815-45.814c-.934-.934-1.073-2.023-1.073-2.59s.14-1.656 1.074-2.59l45.814-45.815c3.524-3.525 5.465-8.212 5.465-13.196v-64.789c0-2.021 1.644-3.664 3.663-3.664h64.79c4.985 0 9.673-1.941 13.198-5.466l45.813-45.814c.934-.934 2.023-1.073 2.59-1.073s1.656.14 2.59 1.074l45.813 45.813c3.525 3.524 8.213 5.466 13.198 5.466h64.79c2.02 0 3.663 1.644 3.663 3.664v64.789c0 4.984 1.94 9.671 5.466 13.198l45.814 45.813c.934.934 1.073 2.023 1.073 2.59s-.14 1.656-1.074 2.59z"/><path d="m365.323 288.651c-2.868-1.956-6.702-1.686-9.268.649-15.312 13.92-35.153 21.587-55.87 21.587-45.812 0-83.082-37.27-83.082-83.081 0-31.795 18.537-61.223 47.225-74.97 3.132-1.501 4.823-4.955 4.09-8.349-.734-3.395-3.702-5.841-7.174-5.913-.936-.02-1.885-.033-2.827-.033-37.025 0-71.109 16.938-93.513 46.47-2.503 3.301-1.857 8.005 1.442 10.509 3.301 2.504 8.005 1.856 10.509-1.442 14.161-18.669 33.674-31.567 55.633-37.256-5.626 5.368-10.624 11.413-14.875 18.028-10.146 15.792-15.51 34.104-15.51 52.956 0 54.082 43.999 98.081 98.082 98.081 13.939 0 27.542-2.94 40.012-8.512-6.412 8.512-14.165 16.02-23.055 22.263-17.254 12.116-37.561 18.521-58.726 18.521-56.414 0-102.31-45.896-102.31-102.309 0-11.248 1.812-22.301 5.386-32.85 1.329-3.923-.774-8.181-4.697-9.51-3.924-1.329-8.182.773-9.51 4.697-4.1 12.102-6.179 24.773-6.179 37.662 0 64.685 52.625 117.309 117.31 117.309 24.267 0 47.555-7.347 67.346-21.245 19.342-13.582 33.985-32.394 42.349-54.4 1.233-3.242.079-6.909-2.788-8.862z"/></g></g></svg>