<svg id="Layer_1" enable-background="new 0 0 511.833 511.833" height="512" viewBox="0 0 511.833 511.833" width="512" xmlns="http://www.w3.org/2000/svg"><g><path style="fill:#ffffff;" d="m251.535 209.598c0-33.342-18.866-59.46-42.95-59.46-24.085 0-42.951 26.118-42.951 59.46 0 26.003 11.476 47.609 27.951 55.863v81.524c0 8.284 6.716 15 15 15s15-6.716 15-15v-81.525c16.474-8.253 27.95-29.859 27.95-55.862zm-42.951-29.46c4.565 0 12.95 11.185 12.95 29.46s-8.385 29.46-12.95 29.46-12.951-11.185-12.951-29.46 8.386-29.46 12.951-29.46z"/><path style="fill:#ffffff;" d="m296.671 149.965c-4.402-.87-8.963.28-12.429 3.128-3.467 2.849-5.476 7.101-5.476 11.588v180.955c0 8.284 6.716 15 15 15s15-6.716 15-15v-57.182l18.969-.06c6.396-.02 12.375-2.559 16.832-7.149 4.462-4.594 6.826-10.65 6.659-17.052-2.641-101.079-49.249-113.181-54.555-114.228zm12.096 108.489v-58.227c5.708 11.818 10.859 30.085 12.226 58.188z"/><path style="fill:#ffffff;" d="m362.172 0h-212.511c-24.963 0-45.271 20.309-45.271 45.271v421.29c0 24.963 20.309 45.271 45.271 45.271h212.512c24.963 0 45.271-20.309 45.271-45.271v-421.29c0-24.962-20.309-45.271-45.272-45.271zm15.272 466.562c0 8.421-6.851 15.271-15.271 15.271h-212.512c-8.421 0-15.271-6.851-15.271-15.271v-421.291c0-8.421 6.851-15.271 15.271-15.271h212.512c8.421 0 15.271 6.851 15.271 15.271z"/><ellipse cx="255.578" cy="436.977" rx="15.099" ry="15.099" transform="matrix(.383 -.924 .924 .383 -245.941 505.876)"/><path style="fill:#ffffff;" d="m230.392 89.195h50.372c8.284 0 15-6.716 15-15s-6.716-15-15-15h-50.372c-8.284 0-15 6.716-15 15s6.716 15 15 15z"/></g></svg>