<?xml version="1.0" encoding="iso-8859-1"?>
<!-- Generator: Adobe Illustrator 19.0.0, SVG Export Plug-In . SVG Version: 6.00 Build 0)  -->
<svg version="1.1" id="Capa_1" xmlns="http://www.w3.org/2000/svg" xmlns:xlink="http://www.w3.org/1999/xlink" x="0px" y="0px"
	 viewBox="0 0 512 512" style="enable-background:new 0 0 512 512;" xml:space="preserve">
<path style="fill:#FF8646;" d="M118.931,289.237v199.515l-25.24,8.413c-3.988,1.329-6.143,5.64-4.815,9.628
	c1.329,3.988,5.642,6.144,9.628,4.815l30.444-10.149c3.108-1.036,5.204-3.945,5.204-7.221V289.237H118.931z"/>
<path style="fill:#FF6337;" d="M195.045,289.237v199.515l25.24,8.413c3.988,1.329,6.143,5.64,4.815,9.628
	c-1.329,3.988-5.642,6.144-9.628,4.815l-30.444-10.149c-3.108-1.036-5.204-3.945-5.204-7.221V289.237H195.045z"/>
<path style="fill:#FFF0D3;" d="M156.987,195.362H27.719c-12.591,0-22.834-10.244-22.834-22.835h15.223
	c0,4.197,3.414,7.612,7.611,7.612h129.269V195.362z"/>
<path style="fill:#B3B3B3;" d="M50.426,197.899v245.598c0,4.205,3.408,7.611,7.611,7.611s7.611-3.407,7.611-7.611V197.899H50.426z"
	/>
<polygon style="fill:#FF8646;" points="179.823,372.456 210.269,372.456 210.269,289.237 134.154,258.791 "/>
<g>
	<polygon style="fill:#FFA754;" points="103.708,372.456 179.823,372.456 179.823,258.791 103.708,289.237 	"/>
	<polygon style="fill:#FFA754;" points="134.154,228.345 210.269,258.791 210.269,289.237 179.823,289.237 	"/>
</g>
<polygon style="fill:#FFCB63;" points="103.708,258.791 103.708,289.237 179.823,289.237 179.823,228.345 "/>
<path style="fill:#FFE2A8;" d="M189.971,167.453h-30.446l20.297,91.338h30.446V187.75
	C210.269,176.54,201.18,167.453,189.971,167.453z"/>
<path style="fill:#FFF0D3;" d="M159.525,167.453h-35.52c-11.21,0-20.297,9.087-20.297,20.297v71.041h76.115V187.75
	C179.823,176.54,170.734,167.453,159.525,167.453z"/>
<polygon style="fill:#A45E43;" points="156.988,30.446 156.988,132.947 202.657,101.487 202.657,60.892 "/>
<polygon style="fill:#C27749;" points="111.319,60.892 111.319,101.487 172.211,148.17 172.211,30.446 "/>
<polygon style="fill:#FFA754;" points="202.655,60.892 111.317,60.892 156.986,15.223 "/>
<path style="fill:#FFE2A8;" d="M202.655,45.669v15.223c-25.219,0-45.669-20.45-45.669-45.669h-15.223L156.986,0
	C182.206,0,202.655,20.45,202.655,45.669z"/>
<path style="fill:#FFF0D3;" d="M156.986,0v15.223c0,25.219-20.45,45.669-45.669,45.669V45.669C111.317,20.45,131.767,0,156.986,0z"
	/>
<path style="fill:#40211D;" d="M175.974,101.487c-1.069-1.596-2.337-3.047-3.764-4.324l-15.223,70.291
	c25.222,0,45.669-20.447,45.669-45.669v-20.297H175.974z"/>
<path style="fill:#60312C;" d="M172.211,121.784V97.162c-4.04-3.619-9.372-5.824-15.223-5.824c-7.917,0-14.89,4.03-18.987,10.149
	h-26.682v20.297c0,25.222,20.447,45.669,45.669,45.669C165.395,167.453,172.211,147.005,172.211,121.784z"/>
<polygon style="fill:#CCCCCC;" points="438.613,481.554 408.168,481.554 347.276,366.367 408.168,258.791 438.613,258.791 "/>
<polygon style="fill:#EBEBEB;" points="408.168,481.554 301.607,481.554 301.607,258.791 408.168,258.791 408.168,380.067 
	377.722,415.588 408.168,451.108 "/>
<polygon style="fill:#353535;" points="408.167,451.108 377.721,451.108 347.275,415.588 377.721,380.067 408.167,380.067 "/>
<rect x="332.055" y="380.067" style="fill:#4F4F4F;" width="45.669" height="71.041"/>
<circle style="fill:#808080;" cx="301.609" cy="496.777" r="15.223"/>
<circle style="fill:#FF6337;" cx="58.041" cy="304.46" r="15.223"/>
<circle style="fill:#808080;" cx="438.616" cy="496.777" r="15.223"/>
<path style="fill:#B3B3B3;" d="M263.548,197.899v245.598c0,4.205,3.408,7.611,7.611,7.611s7.612-3.407,7.612-7.611V197.899H263.548z
	"/>
<g>
	<path style="fill:#85453D;" d="M271.161,142.081c-8.407,0-15.223,6.816-15.223,15.223v60.892h30.446v-60.892
		C286.384,148.896,279.568,142.081,271.161,142.081z"/>
	<path style="fill:#85453D;" d="M58.039,142.081c-8.407,0-15.223,6.816-15.223,15.223v60.892h30.446v-60.892
		C73.262,148.896,66.446,142.081,58.039,142.081z"/>
</g>
<path style="fill:#B3B3B3;" d="M461.447,197.899v245.598c0,4.205,3.408,7.611,7.612,7.611c4.204,0,7.611-3.407,7.611-7.611V197.899
	H461.447z"/>
<path style="fill:#85453D;" d="M469.059,142.081c-8.407,0-15.223,6.816-15.223,15.223v60.892h30.446v-60.892
	C484.282,148.896,477.467,142.081,469.059,142.081z"/>
<g>
	<path style="fill:#4F4F4F;" d="M499.504,266.402H240.714c-4.204,0-7.611-3.407-7.611-7.611c0-4.205,3.408-7.611,7.611-7.611
		h258.791c4.204,0,7.611,3.407,7.611,7.611C507.116,262.995,503.708,266.402,499.504,266.402z"/>
	<path style="fill:#4F4F4F;" d="M415.778,258.791h-15.223v-22.834h-60.892v22.834H324.44v-30.446c0-4.205,3.408-7.612,7.611-7.612
		h76.115c4.204,0,7.612,3.407,7.612,7.612V258.791z"/>
</g>
<path style="fill:#B3B3B3;" d="M408.167,296.848h-76.115c-4.204,0-7.611-3.407-7.611-7.611s3.408-7.612,7.611-7.612h76.115
	c4.204,0,7.612,3.407,7.612,7.612S412.37,296.848,408.167,296.848z"/>
<path style="fill:#B9D171;" d="M73.261,266.402H42.815c-4.204,0-7.611-3.407-7.611-7.611c0-4.205,3.408-7.611,7.611-7.611h30.446
	c4.204,0,7.612,3.407,7.612,7.611C80.872,262.995,77.464,266.402,73.261,266.402z"/>
<circle style="fill:#FF4128;" cx="58.041" cy="395.798" r="15.223"/>
<path style="fill:#B9D171;" d="M73.261,357.74H42.815c-4.204,0-7.611-3.407-7.611-7.612s3.408-7.611,7.611-7.611h30.446
	c4.204,0,7.612,3.407,7.612,7.611S77.464,357.74,73.261,357.74z"/>
<path style="fill:#FFF0D3;" d="M12.496,180.139c-4.204,0-7.611-3.407-7.611-7.612c0-12.59,10.243-22.834,22.834-22.834h15.096
	c4.204,0,7.611,3.407,7.611,7.611c0,4.205-3.408,7.611-7.611,7.611H27.719c-4.197,0-7.611,3.414-7.611,7.611
	C20.107,176.731,16.699,180.139,12.496,180.139z"/>
<g>
</g>
<g>
</g>
<g>
</g>
<g>
</g>
<g>
</g>
<g>
</g>
<g>
</g>
<g>
</g>
<g>
</g>
<g>
</g>
<g>
</g>
<g>
</g>
<g>
</g>
<g>
</g>
<g>
</g>
</svg>
